<svg width="35" height="36" viewBox="0 0 35 36" fill="none" xmlns="http://www.w3.org/2000/svg">
<path d="M20.7065 17.7905L34.3348 4.36518C35.2217 3.49192 35.2217 2.07997 34.3348 1.20671C33.4483 0.333442 32.015 0.333442 31.1285 1.20671L17.4998 14.6321L3.8715 1.20671C2.98459 0.333442 1.55167 0.333442 0.66518 1.20671C-0.221727 2.07997 -0.221727 3.49192 0.66518 4.36518L14.2935 17.7905L0.66518 31.2159C-0.221727 32.0892 -0.221727 33.5011 0.66518 34.3744C1.10697 34.81 1.68786 35.0288 2.26834 35.0288C2.84881 35.0288 3.42929 34.81 3.8715 34.3744L17.4998 20.949L31.1285 34.3744C31.5707 34.81 32.1512 35.0288 32.7317 35.0288C33.3121 35.0288 33.8926 34.81 34.3348 34.3744C35.2217 33.5011 35.2217 32.0892 34.3348 31.2159L20.7065 17.7905Z" fill="#9E9E9E"/>
</svg>
