<svg width="50" height="50" viewBox="0 0 50 50" fill="none" xmlns="http://www.w3.org/2000/svg">
<path d="M26.6973 35.9736C26.6182 35.0723 25.832 34.3682 24.8857 34.3682C24.4784 34.3652 24.0819 34.499 23.7597 34.7481C23.4374 34.9972 23.2081 35.3473 23.1084 35.7422L21.3311 44.3711C21.2723 44.6231 21.2418 44.8809 21.2402 45.1397C21.2402 47.086 22.8691 48.4375 24.8857 48.4375C26.9023 48.4375 28.5322 47.086 28.5322 45.1397C28.5312 44.8278 28.4888 44.5175 28.4062 44.2168L26.6973 35.9736ZM40.1416 39.833C39.9606 39.6746 39.7662 39.5321 39.5605 39.4072L32.7705 34.668C32.1094 34.2539 31.4033 34.2647 30.8906 34.7656C30.6669 34.9785 30.5249 35.263 30.4892 35.5697C30.4535 35.8764 30.5264 36.1859 30.6953 36.4444L35.8223 43.1826C35.9399 43.3456 36.0705 43.4988 36.2129 43.6406C37.1016 44.6328 39.0723 44.6875 40.1553 43.6406C41.2236 42.5703 41.2109 40.6729 40.1416 39.833ZM45.2441 32.8057H38.3672C37.9229 32.8057 37.5 33.1328 37.5 33.6016C37.5 34.0703 37.7881 34.3682 38.1758 34.4961L44.6631 36.5029C45.6055 36.7188 46.875 35.8828 46.875 34.835C46.875 33.5039 46.1328 32.8057 45.2441 32.8057ZM12.5215 33.6016C12.5215 33.1182 12.0771 32.8057 11.5986 32.8057H4.72168C3.85547 32.8057 3.125 33.7412 3.125 34.7891C3.125 35.8369 4.35742 36.7188 5.30273 36.5029L11.8877 34.4961C12.3164 34.3682 12.5215 34.082 12.5215 33.6016ZM17.2412 34.6729L10.4492 39.3955C10.2383 39.5139 10.0417 39.6561 9.86328 39.8194C9.60455 40.06 9.39819 40.3514 9.25708 40.6753C9.11597 40.9993 9.04315 41.3488 9.04315 41.7022C9.04315 42.0555 9.11597 42.4051 9.25708 42.729C9.39819 43.0529 9.60455 43.3443 9.86328 43.585C10.3963 44.0877 11.1013 44.3678 11.834 44.3678C12.5667 44.3678 13.2717 44.0877 13.8047 43.585C13.9499 43.4461 14.0807 43.293 14.1953 43.1279L19.3262 36.4258C19.668 35.8819 19.6113 35.207 19.1309 34.7656C18.8777 34.5293 18.549 34.3903 18.203 34.3733C17.8571 34.3563 17.5163 34.4624 17.2412 34.6729ZM28.6582 23.6709C29.6348 23.1416 30.5576 22.6416 31.4228 22.0928C35.5693 19.4639 37.5 16.3311 37.5 12.2295C37.5 5.91506 32.0244 2.0342 26.873 1.58498C26.2393 1.52931 25.4082 1.54396 24.9287 1.96388C24.4492 2.38381 24.3545 3.19045 24.3281 3.82912C24.1934 7.11134 21.5566 9.59084 18.7617 12.2139C16.0273 14.7822 13.2021 17.4375 12.6377 21.1006C11.8164 26.4404 14.7607 29.5684 16.5889 30.957C17.1307 31.3694 17.7928 31.5927 18.4736 31.5928C18.7173 31.5925 18.9601 31.564 19.1973 31.5078C19.6445 31.403 20.0628 31.2001 20.4221 30.9139C20.7813 30.6276 21.0724 30.2651 21.2744 29.8526C22.7305 26.8848 25.7441 25.251 28.6582 23.6709Z" fill="#B99470"/>
<path d="M13.6543 15.29C14.8477 13.751 16.291 12.3916 17.6943 11.0762C19.6396 9.24805 21.3867 7.60156 22.2354 5.81641C21.04 5.09668 19.5635 4.70703 17.6934 4.70703C15.9561 4.70703 15.7021 5.21289 15.7021 6.56836C15.7021 7.79492 15.0645 8.57422 14.3018 9.56152C13.457 10.6543 12.5 11.8916 12.5 13.7539C12.5 14.7529 12.626 15.5869 12.9102 16.3291C13.138 15.9827 13.3861 15.6364 13.6543 15.29ZM32.2598 23.4121C31.3486 23.9902 30.4043 24.502 29.4033 25.0439C26.5801 26.5752 23.9141 28.0205 22.6768 30.54C22.6194 30.6595 22.5582 30.7771 22.4932 30.8926C22.4392 30.9887 22.4061 31.0951 22.3962 31.2049C22.3863 31.3147 22.3997 31.4253 22.4356 31.5295C22.4715 31.6338 22.529 31.7292 22.6044 31.8096C22.6798 31.89 22.7713 31.9536 22.873 31.9961C24.0752 32.4941 25.3271 32.8037 26.6729 32.8037C29.5226 32.8225 32.2661 31.7226 34.3135 29.7402C35.3284 28.7556 36.1339 27.5759 36.6815 26.2722C37.2291 24.9684 37.5075 23.5674 37.5 22.1533C37.4993 21.6622 37.4559 21.1721 37.3701 20.6885C37.3449 20.5445 37.2798 20.4105 37.1822 20.3017C37.0846 20.1929 36.9585 20.1136 36.8181 20.073C36.6777 20.0323 36.5287 20.0318 36.3881 20.0715C36.2474 20.1113 36.1208 20.1897 36.0225 20.2979C35.0283 21.418 33.7832 22.4463 32.2598 23.4121Z" fill="#B99470"/>
</svg>
