<svg width="50" height="50" viewBox="0 0 50 50" fill="none" xmlns="http://www.w3.org/2000/svg">
<path d="M25 37.5C26.7259 37.5 28.125 36.1009 28.125 34.375C28.125 32.6491 26.7259 31.25 25 31.25C23.2741 31.25 21.875 32.6491 21.875 34.375C21.875 36.1009 23.2741 37.5 25 37.5Z" fill="#B99470"/>
<path d="M9.74398 3.125C8.87337 3.12483 8.01991 3.36712 7.27926 3.82473C6.53861 4.28233 5.94004 4.93716 5.55062 5.71582L2.52328 11.7705C2.22745 12.3659 2.06094 13.0171 2.03468 13.6815C2.00843 14.3458 2.12302 15.0081 2.37093 15.625H29.5389C29.605 15.6251 29.6701 15.6084 29.728 15.5764C29.7859 15.5445 29.8347 15.4984 29.87 15.4424L37.243 3.72363C37.2801 3.66464 37.3008 3.59679 37.3028 3.52713C37.3049 3.45746 37.2882 3.38851 37.2547 3.32744C37.2211 3.26636 37.1718 3.21538 37.1119 3.17979C37.0519 3.14419 36.9836 3.12527 36.9139 3.125H9.74398Z" fill="#B99470"/>
<path d="M47.4776 11.7734L44.4503 5.71875C44.1384 5.08981 43.6884 4.53951 43.1339 4.10896C42.5794 3.67842 41.9347 3.37877 41.2481 3.23242L33.4473 15.625L29.1016 22.5664C26.4451 21.6436 23.555 21.6436 20.8985 22.5664L18.6212 18.9336C18.5861 18.8774 18.5373 18.8311 18.4794 18.799C18.4215 18.7669 18.3563 18.75 18.2901 18.75H4.99422C4.92416 18.7501 4.85541 18.7691 4.79519 18.8049C4.73497 18.8407 4.6855 18.8921 4.65194 18.9536C4.61839 19.0151 4.602 19.0845 4.60449 19.1545C4.60698 19.2245 4.62826 19.2926 4.6661 19.3516L12.7423 31.9229C12.3784 33.7367 12.4217 35.6087 12.8691 37.4038C13.3164 39.1989 14.1566 40.8724 15.3291 42.3034C16.5016 43.7344 17.9771 44.8873 19.6491 45.679C21.3212 46.4706 23.1481 46.8813 24.9981 46.8813C26.8481 46.8813 28.6751 46.4706 30.3471 45.679C32.0192 44.8873 33.4947 43.7344 34.6672 42.3034C35.8396 40.8724 36.6799 39.1989 37.1272 37.4038C37.5745 35.6087 37.6178 33.7367 37.254 31.9229L47.2286 16.4062C47.6665 15.7212 47.9196 14.9345 47.9633 14.1226C48.0069 13.3108 47.8396 12.5015 47.4776 11.7734ZM25.4073 40.6123C24.1391 40.6952 22.8758 40.3895 21.7858 39.736C20.6958 39.0824 19.831 38.1122 19.3066 36.9545C18.7822 35.7968 18.6232 34.5068 18.8507 33.2565C19.0783 32.0061 19.6816 30.8548 20.5803 29.9562C21.479 29.0575 22.6302 28.4542 23.8806 28.2266C25.1309 27.9991 26.4209 28.1581 27.5786 28.6825C28.7363 29.2069 29.7065 30.0717 30.3601 31.1617C31.0136 32.2517 31.3193 33.515 31.2364 34.7832C31.1359 36.296 30.4896 37.7208 29.4177 38.7929C28.3457 39.865 26.921 40.5115 25.4083 40.6123H25.4073Z" fill="#B99470"/>
</svg>
